/* XPM */
static char *by6w0_j1f41[] = {
/* columns rows colors chars-per-pixel */
"49 48 58 1 ",
"  c #040404",
". c #0B0C0B",
"X c #0E100F",
"o c #0F1110",
"O c #131514",
"+ c #161817",
"@ c #171918",
"# c #1B1C1C",
"$ c #1E201F",
"% c #1F2120",
"& c #232424",
"* c #262827",
"= c #272928",
"- c #2A2B2B",
"; c #2E302F",
": c #323333",
"> c #363837",
", c #373938",
"< c #3B3C3B",
"1 c #3E403F",
"2 c #3F4140",
"3 c #434443",
"4 c #474948",
"5 c #4C4C4C",
"6 c #4E504F",
"7 c #4F5150",
"8 c #535353",
"9 c #5B5B5B",
"0 c #656565",
"q c #666867",
"w c #676968",
"e c #6B6B6B",
"r c #6E706F",
"t c #6F7170",
"y c #757575",
"u c #7B7B7B",
"i c #7E807F",
"p c #838484",
"a c #878988",
"s c #8B8C8B",
"d c #939493",
"f c #9C9C9C",
"g c #9FA1A0",
"h c #A4A4A4",
"j c #ABACAC",
"k c #AEB0AF",
"l c #AFB1B0",
"z c #B3B3B3",
"x c #BBBBBB",
"c c #C2C3C3",
"v c #CACBCB",
"b c #CFD1D0",
"n c #D3D4D4",
"m c #DBDBDB",
"M c #E2E3E3",
"N c #ECECEC",
"B c #F5F5F5",
"V c #FEFEFE",
/* pixels */
"VVVVVVVVVVVVVVVVVVVVVVVVVVVVVVVVVVVVVVVVVVVVVVVVV",
"VVVVVVVVVVVVVVVVVVVVVVVVVVVVVVVVVVVVVVVVVVVVVVVVV",
"VVVVVVVVVVVVVVVVVVVVVVVVVVVVVVVVVVVVVVVVVVVVVVVVV",
"VVVVVnxvNVVVVVVVVVVVVVVVVVVVVVVVVVVVVVVVVVVVVVVVV",
"VVVVVVmvjjbVVVVBVVVVVVVVVVVVVVVVVVVVVVVVVVVVVVVVV",
"VVVVVVVVVNxdNVVVVVVVVVVVVVVVVVVVVVVVVVVVVVVVVVVVV",
"VVVBNVBVVVVNdcVBVVVVVVVVVVVVVVVVVVVVVVVVVVVVVVVVV",
"VBmzjhjhhnVVVfxVVVVVVVVVVVVVVVVVVVVVVVVVVVVVVVVVV",
"VVVBVVVBmjdcVBdbVBVVVVVVVVVVVVVVVVVVVVVVVVVVVVVVV",
"VVVVVVVBVVBjdBVdVVVVVVVVVVVVVVVVVVVVVVVVVVVVVVVVV",
"VVVVVVVVVVVVk1e259sBVVVVVVVVVVVVVVVVVVVVVVVVVVVVV",
"VVVVVVVVVVx3*44-444wVVVVVVVVVVVVVVVVVVVVVVVVVVVVV",
"VVVVVVVVBq-:8Vn;69yycVVVVVVVVVVVVVVVVVVVVVVVVVVVV",
"VVVVVVVN4,554ht;<0t9jVVVVVVVVVVVVVVVVVVVVVVVVVVVV",
"VVVVVVBy<853>@+&=,32MVBVVVVVVVVVVVVVVVVVVVVVVVVVV",
"VVVVVVV<,<:&OO#*&-=4hzVVVVVVVVVVVVVVVVVVVVVVVVVVV",
"VVVVVVVs#o#oOO+#&@o*>>eBVVVVVVVVVVVVVVVVVVVVVVVVV",
"VVVVVVVVz9*++O*7h4&349yuVVVVVVVVVVVVVVVVVVVVVVVVV",
"VVVVVVVVVVVNmMNVV<;>6qgsjVVVVVVVVVVVVVVVVVVVVVVVV",
"VVVVVVVVVVVVVBVBh7><1escyVVBVVBVVVVVVVVVVVVVVVVVV",
"VVVVVVVVVVVBVVVv&2$,>6ajynVVVVVBVVVVVVVVVVVVVVVVV",
"VVVVVVVVVVVVVBVhO#&$:-edizBNVVVVVVVVVVVVVVVVVVVVV",
"VVVVVVVVVVVVVVVw*2+.O+&qegz4VVvxVVVVVVVVVVVVVVVVV",
"VVVVVVVVVVVVVVB%yV9dd..+;2-:VM&9VVVVVVVVVVVVVVVVV",
"VVVVVVVVVVVVVVj@vVVVVMp@#;9yj5q9VBVVVVVVVVVVVVVVV",
"VVVVVVVVVVVVVV63BVVz6NV-1=qx59<-9ycVVVVVVVVVVVVVV",
"VVVVVVVVVVVBVM#jVBVc&2u3o#:9;#=:,<8wvVVVVVVVVVVVV",
"VVVVVVVVVVVVVy,VVVVN-4-5$.$O&;>:489q0fVVVVVVVVVVV",
"VVVVVVVVVVVVB#jVVVBB%zB&## oO+-250pfaefVVVVVVVVVV",
"VVVVVBVVVVVVf4BVVVVV-pVp$l .$@#-3thzzgydVBVVVVVVV",
"VVVVBVVVVVVV;xVVVVVV3pVn.+ X&##&$>rjvbjyjVVVVVVVV",
"VVVVVVVVVBVf9VVBVVVV5uVV6 -o&@o%@o@:yjbk9bVVVVVVV",
"BVVVVVVVVVV4nVVVVVVV8pVVndc+#$XO+##+o&6ppwVVVVVVV",
"VVVVVBVVVBfpVVVVVVBV0aVBVVV,$O..X+++&@@o;4sVVVVVV",
"VVVVVVVVVByVVVVVVVVV0pVVVBVm=X   o.O@#$&*-,bVVVVV",
"BVVVVVVVVjbVVVVVVVVV0dVVVVVV68q*.  ...X+#$&9VVVVV",
"VVVVBVVVBnVVVVVVVVVVqjVVVVVVqiVBNyupye0qwweuNVVVV",
"VVVVVVVVVVVVVVVVVVVVecBVVVVVz5VVVVMVVVVVVVVVVVVVV",
"VVVVVVVVVVVVVVVVVVVVuMVVVBVVB4MVBVVBVVVBBVBVVVVVV",
"VVVVVVVVBVVVVVVVVVVVdNVVVVVVVphVBVVVVVVVVVVBVVVVV",
"VVVVVVVVVVVVVVVVVVVVzVVVVVVVVMuVVVVVVVVVVVVVVVVVV",
"VVVBVVVVVVVVVVVVVVVBmVVVVVVVVVhmVVVVVVVVVVVVVVVVV",
"VVVVVVVVVVVVVVVVVVVVVVVVVVVVVVNvVVVVVVVVVVVVVVVVV",
"VVVVVVVVVVVVVVVVVVVVVVVVVVVVVVVNVVVVVVVVVVVVVVVVV",
"VVVVVVVVVVVVVVVVVVVVVVVVVVVVVVVVVVVVVVVVVVVVVVVVV",
"VVVVVVVVVVVVVVVVVVVVVVVVVVVVVVVVVVVVVVVVVVVVVVVVV",
"VVVVVVVVVVVVVVVVVVVVVVVVVVVVVVVVVVVVVVVVVVVVVVVVV",
"VVVVVVVVVVVVVVVVVVVVVVVVVVVVVVVVVVVVVVVVVVVVVVVVV"
};
