/* XPM */
static char *bh972_ueus6[] = {
/* columns rows colors chars-per-pixel */
"43 41 142 2 ",
"   c None",
".  c gray37",
"X  c gray38",
"o  c #676767",
"O  c #6D6D6D",
"+  c gray44",
"@  c #727272",
"#  c gray46",
"$  c #777777",
"%  c #807C7E",
"&  c gray51",
"*  c #848484",
"=  c #868686",
"-  c #888888",
";  c gray54",
":  c #8E8E8E",
">  c gray57",
",  c #939393",
"<  c #959595",
"1  c gray59",
"2  c gray60",
"3  c #9B9B9B",
"4  c #9E9B9C",
"5  c gray61",
"6  c #9F9F9F",
"7  c #A19E9F",
"8  c gray63",
"9  c #A2A2A2",
"0  c #A5A2A4",
"q  c #A4A4A4",
"w  c #A9A6A8",
"e  c gray66",
"r  c #AAAAAA",
"t  c gray67",
"y  c #AEABAD",
"u  c gray68",
"i  c #AEAEAE",
"p  c #AFAFAF",
"a  c #B1B1B1",
"s  c gray71",
"d  c #B6B4B5",
"f  c #B7B7B7",
"g  c #BBBBBB",
"h  c #BCBCBC",
"j  c gray74",
"k  c gray75",
"l  c #C0C0C0",
"z  c #C3C1C2",
"x  c gray76",
"c  c #C3C3C3",
"v  c #C4C3C4",
"b  c gray77",
"n  c #C7C5C6",
"m  c #C6C6C6",
"M  c gray78",
"N  c #C8C6C7",
"B  c #C9C7C8",
"V  c gray79",
"C  c #CAC8C9",
"Z  c #CACACA",
"A  c #CBCACA",
"S  c #CBCBCB",
"D  c #CCCACB",
"F  c #CDCBCC",
"G  c gray80",
"H  c #CDCDCD",
"J  c #CECECE",
"K  c gray81",
"L  c #D0D0D0",
"P  c #D1D0D0",
"I  c #D3D1D2",
"U  c #D3D2D3",
"Y  c LightGray",
"T  c #D5D5D5",
"R  c #D7D7D7",
"E  c gray85",
"W  c #DADADA",
"Q  c #DBDADA",
"!  c gray86",
"~  c gainsboro",
"^  c #DDDCDC",
"/  c #DDDDDD",
"(  c gray87",
")  c #DFDEDE",
"_  c #E0DEDF",
"`  c #E1E0E0",
"'  c #E1E1E1",
"]  c #E2E1E1",
"[  c #E2E2E2",
"{  c gray89",
"}  c #E4E3E3",
"|  c #E4E4E4",
" . c gray90",
".. c #E6E5E6",
"X. c #E6E6E6",
"o. c #E7E7E7",
"O. c gray91",
"+. c #E9E9E9",
"@. c #EAE9EA",
"#. c #EAEAEA",
"$. c #EBEAEA",
"%. c #EBEAEB",
"&. c #ECECEC",
"*. c #EDECEC",
"=. c gray93",
"-. c #EEEEEE",
";. c #EFEEEF",
":. c #EFEFEF",
">. c #F0EFEF",
",. c gray94",
"<. c #F1F1F1",
"1. c gray95",
"2. c #F3F2F2",
"3. c #F3F2F3",
"4. c #F3F3F3",
"5. c #F4F4F4",
"6. c gray96",
"7. c #F6F5F6",
"8. c #F6F6F6",
"9. c #F7F6F6",
"0. c #F7F6F7",
"q. c gray97",
"w. c #F8F7F8",
"e. c #F8F8F8",
"r. c #F9F8F8",
"t. c #F9F9F9",
"y. c #FAF9F9",
"u. c #FAF9FA",
"i. c gray98",
"p. c #FBFAFB",
"a. c #FBFBFB",
"s. c #FCFBFC",
"d. c gray99",
"f. c #FDFCFC",
"g. c #FDFCFD",
"h. c #FDFDFD",
"j. c #FEFDFD",
"k. c #FEFDFE",
"l. c #FEFEFE",
"z. c #FFFEFE",
"x. c #FFFEFF",
"c. c white",
/* pixels */
"      3 h u #                                                                         ",
"        * e M H 9                                                                     ",
"              o g ! @                                                                 ",
"    .             + W p                                                               ",
", m V H Z L H 5       Y h                                                             ",
"            : Z ~ d     E q                                                           ",
"                  D ^     /                                                           ",
"                    C t.-.y.8.4.(                                                     ",
"                g r.h.q.w.d.e.q.e.=.                                                  ",
"              -.d.s.6.  7 d.8.4.O.#.s                                                 ",
"          $ e.i.8.9.q.I &.s.i.<.*.4.S                                                 ",
"          #.i.6.q.t.a.l.l.h.f.i.t.t.;                                                 ",
"          t.a.i.d.h.l.l.l.g.j.d.d.e.J k                                               ",
"          ( l.l.l.l.l.l.l.l.h.l.l.h.a.a.&.X                                           ",
"            b 1.h.l.l.l.h.8.P 0.h.t.q.5.&.o.                                          ",
"                  # < * o     t.s.a.8.;.I ` v                                         ",
"                            Y 8.a.u.i.;.) d @.                                        ",
"                          t h.t.j.i.a.7.] N $.4                                       ",
"                          K l.h.h.h.s.d.*.Q X.z   $                                   ",
"                          :.h.t.l.c.l.l.h.>.;.U n e.    t f                           ",
"                          h.+.  4.W ^ c.c.l.d.t.d.a.  & h.4.                          ",
"                        V l.r         % ..l.l.s.3.+.H 8.:.4.                          ",
"                        8.t.      b 8.@   d.i.f.>.j 8.5.i.d.4.+.s                     ",
"                      - l.V       s h.t.X.t.l.l.a.4.d.l.d.d.i.i.8.-.e                 ",
"                      o.i.        @ d.e.d.8.l.c.l.l.h.d.a.a.e.6.1.:.<.T               ",
"                      l.Z           h.m . h.l.l.c.l.l.l.d.t.q.,.{ R ' -.R             ",
"                    R e.            d.{   { h.m c.c.h.l.l.d.t.&.K x c Y +.E           ",
"                    d.h             e.{   5 c.l.c.z.h.l.l.h.l.p.&.F y 0 A @.B         ",
"                  T 1.              q.X.    8.c.h.l.h.l.l.j.l.l.l.a.%.B w B 2.0       ",
"                  q.6               5. .    5 E s l.l.k.x.l.l.l.l.l.l.h.8.} } :.      ",
"                Y {                 <.'           i.k.l.c.c.z.l.l.l.h.l.l.l.d.w._     ",
"              . #.                  ,.[           > h.c.c.c.c.l.c.l.l.l.h.h.h.d.a.9   ",
"              V 8                   ,.W             8.5.:.h.c.c.c.c.c.c.c.l.l.h.h.5.  ",
"              2                     :.S             -. .    # O.O.| +.-.:.:.:.-.=.O.  ",
"                                    =.a             c q.        &                     ",
"                                    o.;               q.=                             ",
"                                    ~ X               { G                             ",
"                                    l                 = o.                            ",
"                                    ,                   S 1                           ",
"                                                        o i                           ",
"                                                          O                           "
};
