/* XPM */
static char *_574079489102[] = {
/* columns rows colors chars-per-pixel */
"22 21 62 1 ",
"  c #A4A4A4",
". c gray65",
"X c #ABA8AA",
"o c #AAAAAA",
"O c gray68",
"+ c #AFAFAF",
"@ c #B4B4B4",
"# c #BBBBBB",
"$ c gray75",
"% c #C1C1C1",
"& c gray77",
"* c #C4C5C4",
"= c #CDCDCD",
"- c #CECECE",
"; c gray81",
": c #D0D0D0",
"> c #D1D0D0",
", c #D6D5D5",
"< c gray84",
"1 c #D7D7D7",
"2 c #D8D7D8",
"3 c #D8D8D8",
"4 c gray85",
"5 c gray86",
"6 c gray87",
"7 c #DFDEDE",
"8 c #E5E6E5",
"9 c #E6E6E6",
"0 c #E8E7E7",
"q c #E9E7E8",
"w c gray91",
"e c #E9E8E9",
"r c #E9E9E9",
"t c #EBEAEB",
"y c #ECECEC",
"u c #EDECEC",
"i c #EFEFEF",
"p c #F0EFEF",
"a c gray94",
"s c #F1F1F1",
"d c #F2F1F1",
"f c #F2F1F2",
"g c #F3F3F3",
"h c #F4F4F4",
"j c gray96",
"k c #F6F5F5",
"l c #F6F6F6",
"z c #F6F7F6",
"x c gray97",
"c c #F8F8F8",
"v c #F9F9F9",
"b c gray98",
"n c #FBFBFB",
"m c #FCFBFC",
"M c gray99",
"N c #FDFDFD",
"B c #FEFDFE",
"V c #FEFEFE",
"C c #FFFEFE",
"Z c #FEFFFF",
"A c white",
"S c None",
/* pixels */
"SS.+SSSSSSSSSSSSSSSSSS",
"SSSS%.SSSSSSSSSSSSSSSS",
"+==@SS&SSSSSSSSSSSSSSS",
"SSSSS,SSSSSSSSSSSSSSSS",
"SSSS4NqxkSSSSSSSSSSSSS",
"SSSNkgxbi$SSSSSSSSSSSS",
"SSSNNNNNN,SSSSSSSSSSSS",
"SSS=mkk:NkrSSSSSSSSSSS",
"SSSSSSS4Mb6tSSSSSSSSSS",
"SSSSSSSNNMu9SSSSSSSSSS",
"SSSSSSSrg6NNnSgSSSSSSS",
"SSSSSSkSSgSbggbk$SSSSS",
"SSSSSSNSSNNNNNbbkiSSSS",
"SSSSS6SSSNSNNNNb4&9SSS",
"SSSSSbSSSbSNNNNNNrX0SS",
"SSSS4SSSSgSSSNNNNNNbrS",
"SSSS@SSSSuSSSchNNNNNNS",
"SSSSSSSSSuSSS:SS+SSSSS",
"SSSSSSSSS6SSSS#SSSSSSS",
"SSSSSSSSS.SSSS5SSSSSSS",
"SSSSSSSSSSSSSSSSSSSSSS"
};
